<svg width="18" height="17" viewBox="0 0 18 17" fill="none" xmlns="http://www.w3.org/2000/svg">
<path d="M9.56381 5.24902C9.56381 4.93836 9.31197 4.68652 9.00131 4.68652C8.69065 4.68652 8.43881 4.93836 8.43881 5.24902V9.74902C8.43881 10.0597 8.69065 10.3115 9.00131 10.3115C9.31197 10.3115 9.56381 10.0597 9.56381 9.74902V5.24902Z" fill="black"/>
<path fill-rule="evenodd" clip-rule="evenodd" d="M10.7554 1.30936C9.63883 0.812245 8.36379 0.812245 7.24726 1.30936C6.54914 1.62018 5.98539 2.21584 5.40323 3.03984C4.82289 3.86124 4.17298 4.98693 3.33336 6.4412L3.30268 6.49434C2.46306 7.94861 1.81313 9.0743 1.39195 9.98758C0.969424 10.9038 0.735441 11.6898 0.815321 12.4498C0.943076 13.6653 1.58059 14.7695 2.56937 15.4879C3.18761 15.9371 3.98534 16.1275 4.99003 16.2196C5.99154 16.3115 7.29136 16.3115 8.97058 16.3115H9.032C10.7112 16.3115 12.0111 16.3115 13.0126 16.2196C14.0173 16.1275 14.815 15.9371 15.4333 15.4879C16.422 14.7695 17.0595 13.6653 17.1873 12.4498C17.2672 11.6898 17.0332 10.9038 16.6107 9.98758C16.1895 9.07429 15.5396 7.94859 14.6999 6.4943L14.6692 6.44114C13.8296 4.9869 13.1797 3.86123 12.5994 3.03984C12.0172 2.21584 11.4535 1.62018 10.7554 1.30936ZM7.70484 2.3371C8.5301 1.96967 9.47252 1.96967 10.2978 2.3371C10.7128 2.52186 11.1319 2.91237 11.6806 3.689C12.2276 4.46323 12.8522 5.54393 13.7103 7.03027C14.5685 8.51661 15.1921 9.59788 15.5891 10.4587C15.9873 11.3222 16.1159 11.8804 16.0685 12.3322C15.974 13.2306 15.5028 14.0468 14.772 14.5778C14.4045 14.8448 13.8567 15.0125 12.9098 15.0994C11.9658 15.186 10.7176 15.1865 9.00131 15.1865C7.28503 15.1865 6.03682 15.186 5.09281 15.0994C4.14587 15.0125 3.59814 14.8448 3.23063 14.5778C2.49979 14.0468 2.02859 13.2306 1.93416 12.3322C1.88667 11.8804 2.01531 11.3222 2.41354 10.4587C2.81054 9.59788 3.43416 8.51661 4.2923 7.03027C5.15044 5.54393 5.77503 4.46323 6.32204 3.689C6.87074 2.91237 7.28985 2.52186 7.70484 2.3371Z" fill="black"/>
<path d="M9.75134 11.999C9.75134 12.4132 9.41556 12.749 9.00134 12.749C8.58713 12.749 8.25134 12.4132 8.25134 11.999C8.25134 11.5848 8.58713 11.249 9.00134 11.249C9.41556 11.249 9.75134 11.5848 9.75134 11.999Z" fill="black"/>
</svg>
