<svg width="15" height="19" viewBox="0 0 15 19" fill="none" xmlns="http://www.w3.org/2000/svg">
<path fill-rule="evenodd" clip-rule="evenodd" d="M7.50033 0.989502C5.4235 0.989502 3.73991 2.6731 3.73991 4.74992V4.94784H1.16699C0.839073 4.94784 0.573242 5.21367 0.573242 5.54159C0.573242 5.8695 0.839073 6.13534 1.16699 6.13534H13.8337C14.1616 6.13534 14.4274 5.8695 14.4274 5.54159C14.4274 5.21367 14.1616 4.94784 13.8337 4.94784H11.2607V4.74992C11.2607 2.6731 9.57715 0.989502 7.50033 0.989502ZM7.50033 2.177C8.92131 2.177 10.0732 3.32894 10.0732 4.74992V4.94784H4.92741V4.74992C4.92741 3.32894 6.07934 2.177 7.50033 2.177Z" fill="#BA001A"/>
<path d="M2.54975 7.06876C2.51873 6.74231 2.22895 6.50281 1.9025 6.53383C1.57605 6.56485 1.33655 6.85463 1.36757 7.18108C1.44236 7.96822 1.57733 8.93808 1.75083 10.1848L1.97372 11.7864C2.18681 13.318 2.30766 14.1867 2.56911 14.8983C3.05567 16.2226 3.92362 17.2842 5.03987 17.7553C5.64603 18.0111 6.33936 18.0108 7.37154 18.0104H7.62911C8.66129 18.0108 9.35462 18.0111 9.96078 17.7553C11.077 17.2842 11.945 16.2226 12.4315 14.8983C12.693 14.1867 12.8138 13.318 13.0269 11.7863L13.2498 10.1848C13.4233 8.93809 13.5583 7.96822 13.6331 7.18108C13.6641 6.85463 13.4246 6.56485 13.0982 6.53383C12.7717 6.50281 12.4819 6.74231 12.4509 7.06876C12.3788 7.82714 12.2475 8.77161 12.0717 10.0352L11.864 11.5275C11.634 13.1802 11.5287 13.9123 11.3169 14.4887C10.9085 15.6004 10.2294 16.353 9.4991 16.6612C9.14269 16.8116 8.71092 16.8228 7.50033 16.8228C6.28974 16.8228 5.85796 16.8116 5.50155 16.6612C4.77129 16.353 4.09217 15.6004 3.68376 14.4887C3.47198 13.9123 3.36664 13.1802 3.13664 11.5275L2.92896 10.0352C2.75311 8.77161 2.6218 7.82715 2.54975 7.06876Z" fill="#BA001A"/>
<path d="M6.51074 7.91658C6.51074 7.58867 6.24491 7.32283 5.91699 7.32283C5.58907 7.32283 5.32324 7.58867 5.32324 7.91658V14.2499C5.32324 14.5778 5.58907 14.8437 5.91699 14.8437C6.24491 14.8437 6.51074 14.5778 6.51074 14.2499V7.91658Z" fill="#BA001A"/>
<path d="M9.67741 7.91658C9.67741 7.58867 9.41158 7.32283 9.08366 7.32283C8.75574 7.32283 8.48991 7.58867 8.48991 7.91658V14.2499C8.48991 14.5778 8.75574 14.8437 9.08366 14.8437C9.41158 14.8437 9.67741 14.5778 9.67741 14.2499V7.91658Z" fill="#BA001A"/>
</svg>
