<svg width="18" height="14" viewBox="0 0 18 14" fill="none" xmlns="http://www.w3.org/2000/svg">
<path d="M5.085 7.1642H5.832C6.55875 7.1642 7.01887 7.58945 7.0245 8.1767C7.0335 8.78083 6.54413 9.21058 5.80275 9.21058C5.13 9.20608 4.63613 8.84495 4.60125 8.36008H3.375C3.40875 9.38833 4.26487 10.2591 5.79712 10.2591C7.19212 10.2591 8.36775 9.51658 8.35313 8.23633C8.3385 7.1642 7.51275 6.68383 6.89962 6.62533V6.55558C7.39462 6.47683 8.16525 5.9627 8.14613 5.0087C8.1315 3.98945 7.24613 3.24245 5.8365 3.24808C4.36275 3.2537 3.53813 4.07383 3.50325 5.12683H4.74413C4.76888 4.68695 5.175 4.28195 5.79712 4.28195C6.39562 4.28195 6.84112 4.6532 6.84112 5.19658C6.84562 5.73545 6.41025 6.13595 5.79712 6.13595H5.08612V7.1642H5.085ZM9.14175 3.37633V10.1252H11.6044C13.6406 10.1252 14.625 8.87983 14.625 6.73333C14.625 4.60258 13.6564 3.37633 11.6044 3.37633H9.14175ZM10.4771 4.4642H11.4266C12.6776 4.4642 13.2502 5.23595 13.2502 6.7592C13.2502 8.28133 12.6821 9.0317 11.4266 9.0317H10.4771V4.4642Z" fill="#111111"/>
<path d="M15.75 1.125C16.0484 1.125 16.3345 1.24353 16.5455 1.4545C16.7565 1.66548 16.875 1.95163 16.875 2.25V11.25C16.875 11.5484 16.7565 11.8345 16.5455 12.0455C16.3345 12.2565 16.0484 12.375 15.75 12.375H2.25C1.95163 12.375 1.66548 12.2565 1.4545 12.0455C1.24353 11.8345 1.125 11.5484 1.125 11.25V2.25C1.125 1.95163 1.24353 1.66548 1.4545 1.4545C1.66548 1.24353 1.95163 1.125 2.25 1.125H15.75ZM2.25 0C1.65326 0 1.08097 0.237053 0.65901 0.65901C0.237053 1.08097 0 1.65326 0 2.25L0 11.25C0 11.8467 0.237053 12.419 0.65901 12.841C1.08097 13.2629 1.65326 13.5 2.25 13.5H15.75C16.3467 13.5 16.919 13.2629 17.341 12.841C17.7629 12.419 18 11.8467 18 11.25V2.25C18 1.65326 17.7629 1.08097 17.341 0.65901C16.919 0.237053 16.3467 0 15.75 0H2.25Z" fill="#111111"/>
</svg>
