<svg width="16" height="16" viewBox="0 0 16 16" fill="none" xmlns="http://www.w3.org/2000/svg">
<path d="M1 3.8C1 3.05739 1.295 2.3452 1.8201 1.8201C2.3452 1.295 3.05739 1 3.8 1H12.2C12.9426 1 13.6548 1.295 14.1799 1.8201C14.705 2.3452 15 3.05739 15 3.8V7.3H1V3.8Z" stroke="#111111" stroke-width="1.1" stroke-linecap="round" stroke-linejoin="round"/>
<path d="M12.55 11.1504H10.45" stroke="#111111" stroke-width="1.1" stroke-linecap="round"/>
<path d="M8 7.30078H15V12.2008C15 12.9434 14.705 13.6556 14.1799 14.1807C13.6548 14.7058 12.9426 15.0008 12.2 15.0008H8V7.30078ZM8 7.30078H1V12.2008C1 12.9434 1.295 13.6556 1.8201 14.1807C2.3452 14.7058 3.05739 15.0008 3.8 15.0008H8V7.30078Z" stroke="#111111" stroke-width="1.1" stroke-linecap="round" stroke-linejoin="round"/>
<path d="M3.44995 12.1996L4.49995 11.1496M4.49995 11.1496L5.54995 10.0996M4.49995 11.1496L5.54995 12.1996M4.49995 11.1496L3.44995 10.0996" stroke="#111111" stroke-width="1.1" stroke-linecap="round"/>
</svg>
