<svg width="18" height="21" viewBox="0 0 18 21" fill="none" xmlns="http://www.w3.org/2000/svg">
<path d="M17.7002 14.4906C17.147 13.5344 16.4814 11.7156 16.4814 8.5V7.83438C16.4814 3.68125 13.1533 0.278125 9.05642 0.25H9.00017C8.01649 0.25123 7.04268 0.4462 6.13435 0.823776C5.22601 1.20135 4.40094 1.75414 3.70624 2.45058C3.01154 3.14702 2.46082 3.97347 2.08552 4.88275C1.71022 5.79202 1.51769 6.76632 1.51892 7.75V8.5C1.51892 11.7156 0.853295 13.5344 0.30017 14.4906C0.166399 14.7185 0.0951976 14.9777 0.0937718 15.2419C0.0923461 15.5061 0.160747 15.7661 0.292051 15.9954C0.423355 16.2247 0.612903 16.4152 0.841513 16.5477C1.07012 16.6803 1.32968 16.75 1.59392 16.75H5.25017C5.25017 17.7446 5.64526 18.6984 6.34852 19.4016C7.05178 20.1049 8.00561 20.5 9.00017 20.5C9.99473 20.5 10.9486 20.1049 11.6518 19.4016C12.3551 18.6984 12.7502 17.7446 12.7502 16.75H16.4064C16.6706 16.7517 16.9305 16.6831 17.1595 16.5513C17.3884 16.4196 17.5783 16.2293 17.7095 16C17.8397 15.7694 17.9073 15.5088 17.9056 15.2441C17.904 14.9793 17.8332 14.7196 17.7002 14.4906ZM9.00017 19C8.40419 18.9975 7.83333 18.7597 7.41191 18.3383C6.99048 17.9168 6.75264 17.346 6.75017 16.75H11.2502C11.2477 17.346 11.0099 17.9168 10.5884 18.3383C10.167 18.7597 9.59615 18.9975 9.00017 19ZM1.59392 15.25C2.2408 14.125 3.01892 12.0531 3.01892 8.5V7.75C3.01645 6.96295 3.16934 6.18316 3.46882 5.45532C3.7683 4.72747 4.20849 4.06589 4.76414 3.50849C5.3198 2.95109 5.98 2.50884 6.70691 2.20708C7.43381 1.90533 8.21312 1.75 9.00017 1.75H9.04705C12.3189 1.76875 14.9814 4.50625 14.9814 7.83438V8.5C14.9814 12.0531 15.7595 14.125 16.4064 15.25H1.59392Z" fill="#333333"/>
</svg>
