<svg width="15" height="8" viewBox="0 0 15 8" fill="none" xmlns="http://www.w3.org/2000/svg">
<mask id="path-1-inside-1_585_1231" fill="white">
<path d="M4.22024 0L4.92955 0.672307L1.92023 3.52463H15V4.47546H1.92032L4.92955 7.32769L4.22024 8L0 4L4.22024 0Z"/>
</mask>
<path d="M4.22024 0L4.92955 0.672307L1.92023 3.52463H15V4.47546H1.92032L4.92955 7.32769L4.22024 8L0 4L4.22024 0Z" fill="white"/>
<path d="M4.22024 0L3.53232 -0.725791L4.22024 -1.37781L4.90816 -0.725786L4.22024 0ZM4.92955 0.672307L5.61747 -0.0534785L6.38321 0.672308L5.61747 1.39809L4.92955 0.672307ZM1.92023 3.52463V4.52463H-0.588474L1.23231 2.79884L1.92023 3.52463ZM15 3.52463V2.52463H16V3.52463H15ZM15 4.47546H16V5.47546H15V4.47546ZM1.92032 4.47546L1.2324 5.20125L-0.58838 3.47546H1.92032V4.47546ZM4.92955 7.32769L5.61747 6.60191L6.38321 7.32769L5.61747 8.05348L4.92955 7.32769ZM4.22024 8L4.90816 8.72579L4.22024 9.37781L3.53232 8.72579L4.22024 8ZM0 4L-0.687916 4.72579L-1.45367 4L-0.687916 3.27421L0 4ZM4.90816 -0.725786L5.61747 -0.0534785L4.24163 1.39809L3.53232 0.725786L4.90816 -0.725786ZM5.61747 1.39809L2.60815 4.25041L1.23231 2.79884L4.24163 -0.0534789L5.61747 1.39809ZM1.92023 2.52463H15V4.52463H1.92023V2.52463ZM16 3.52463V4.47546H14V3.52463H16ZM15 5.47546H1.92032V3.47546H15V5.47546ZM2.60824 3.74968L5.61747 6.60191L4.24163 8.05348L1.2324 5.20125L2.60824 3.74968ZM5.61747 8.05348L4.90816 8.72579L3.53232 7.27421L4.24163 6.60191L5.61747 8.05348ZM3.53232 8.72579L-0.687916 4.72579L0.687915 3.27421L4.90815 7.27421L3.53232 8.72579ZM-0.687916 3.27421L3.53232 -0.725791L4.90815 0.725791L0.687915 4.72579L-0.687916 3.27421Z" fill="#111111" mask="url(#path-1-inside-1_585_1231)"/>
</svg>
