<svg width="12" height="12" viewBox="0 0 12 12" fill="none" xmlns="http://www.w3.org/2000/svg">
<path d="M7.53657 5.99999L11.3916 2.14499C11.5817 1.93772 11.6845 1.66501 11.6784 1.38379C11.6723 1.10257 11.5578 0.834571 11.3588 0.635736C11.1599 0.436901 10.8918 0.322596 10.6106 0.316681C10.3294 0.310766 10.0567 0.413698 9.84957 0.603992L9.85056 0.602992L5.99557 4.45799L2.14057 0.602992C1.93329 0.412833 1.66058 0.310077 1.37936 0.316175C1.09814 0.322272 0.830145 0.436751 0.63131 0.635715C0.432475 0.834679 0.31817 1.10275 0.312255 1.38398C0.30634 1.6652 0.409272 1.93784 0.599565 2.14499L0.598565 2.14399L4.45357 5.99899L0.598565 9.85399C0.490103 9.9535 0.402897 10.0739 0.342199 10.208C0.2815 10.3421 0.248564 10.4871 0.245374 10.6343C0.242183 10.7814 0.268803 10.9277 0.323633 11.0643C0.378462 11.2009 0.460366 11.325 0.564414 11.4291C0.668462 11.5332 0.792502 11.6152 0.929067 11.6701C1.06563 11.7251 1.2119 11.7518 1.35906 11.7487C1.50622 11.7456 1.65123 11.7127 1.78537 11.6521C1.9195 11.5915 2.03999 11.5044 2.13957 11.396L2.14057 11.395L5.99557 7.53999L9.85056 11.395C9.95007 11.5035 10.0705 11.5907 10.2046 11.6514C10.3387 11.7121 10.4837 11.745 10.6308 11.7482C10.778 11.7514 10.9243 11.7248 11.0609 11.6699C11.1975 11.6151 11.3216 11.5332 11.4257 11.4291C11.5298 11.3251 11.6118 11.2011 11.6667 11.0645C11.7216 10.9279 11.7483 10.7817 11.7453 10.6345C11.7422 10.4873 11.7093 10.3423 11.6487 10.2082C11.5881 10.0741 11.501 9.95357 11.3926 9.85399L11.3916 9.85299L7.53657 5.99999Z" fill="#BA001A"/>
</svg>
