<svg width="24" height="24" viewBox="0 0 24 24" fill="none" xmlns="http://www.w3.org/2000/svg">
<g clip-path="url(#clip0_693_743)">
<path d="M20.4802 3.51206C19.3668 2.39629 18.044 1.51148 16.5877 0.908436C15.1315 0.305396 13.5704 -0.00398749 11.9942 -0.00194306C5.36616 -0.00194306 -0.00683594 5.37106 -0.00683594 11.9991C-0.00683594 15.3131 1.33716 18.3141 3.50916 20.4861C4.62249 21.6018 5.94529 22.4866 7.40158 23.0897C8.85787 23.6927 10.419 24.0021 11.9952 24.0001C18.6232 24.0001 23.9962 18.6271 23.9962 11.9991C23.9962 8.68506 22.6522 5.68406 20.4802 3.51206ZM18.9382 18.9391C18.0274 19.8522 16.9452 20.5763 15.7536 21.0699C14.5621 21.5634 13.2848 21.8167 11.9952 21.8151C6.57216 21.8151 2.17616 17.4191 2.17616 11.9961C2.17455 10.7064 2.42779 9.42908 2.92135 8.23757C3.41491 7.04607 4.13905 5.96383 5.05216 5.05306C5.96272 4.13993 7.04478 3.41577 8.23612 2.92221C9.42747 2.42864 10.7046 2.17541 11.9942 2.17706C17.4162 2.17706 21.8122 6.57306 21.8122 11.9951C21.8139 13.2846 21.5607 14.5618 21.0671 15.7531C20.5735 16.9445 19.8493 18.0265 18.9362 18.9371L18.9382 18.9391Z" fill="#FFFFFF"/>
<path d="M13.5366 12L17.3916 8.14499C17.5817 7.93772 17.6845 7.66501 17.6784 7.38379C17.6723 7.10257 17.5578 6.83457 17.3588 6.63574C17.1599 6.4369 16.8918 6.3226 16.6106 6.31668C16.3294 6.31077 16.0567 6.4137 15.8496 6.60399L15.8506 6.60299L11.9956 10.458L8.14057 6.60299C7.93329 6.41283 7.66058 6.31008 7.37936 6.31617C7.09814 6.32227 6.83014 6.43675 6.63131 6.63572C6.43247 6.83468 6.31817 7.10275 6.31225 7.38398C6.30634 7.6652 6.40927 7.93784 6.59957 8.14499L6.59857 8.14399L10.4536 11.999L6.59857 15.854C6.4901 15.9535 6.4029 16.0739 6.3422 16.208C6.2815 16.3421 6.24856 16.4871 6.24537 16.6343C6.24218 16.7814 6.2688 16.9277 6.32363 17.0643C6.37846 17.2009 6.46037 17.325 6.56441 17.4291C6.66846 17.5332 6.7925 17.6152 6.92907 17.6701C7.06563 17.7251 7.2119 17.7518 7.35906 17.7487C7.50622 17.7456 7.65123 17.7127 7.78537 17.6521C7.9195 17.5915 8.03999 17.5044 8.13957 17.396L8.14057 17.395L11.9956 13.54L15.8506 17.395C15.9501 17.5035 16.0705 17.5907 16.2046 17.6514C16.3387 17.7121 16.4837 17.745 16.6308 17.7482C16.778 17.7514 16.9243 17.7248 17.0609 17.6699C17.1975 17.6151 17.3216 17.5332 17.4257 17.4291C17.5298 17.3251 17.6118 17.2011 17.6667 17.0645C17.7216 16.9279 17.7483 16.7817 17.7453 16.6345C17.7422 16.4873 17.7093 16.3423 17.6487 16.2082C17.5881 16.0741 17.501 15.9536 17.3926 15.854L17.3916 15.853L13.5366 12Z" fill="#FFFFFF"/>
</g>
<defs>
<clipPath id="clip0_693_743">
<rect width="24" height="24" fill="white"/>
</clipPath>
</defs>
</svg>
