<svg width="15" height="15" viewBox="0 0 15 15" fill="none" xmlns="http://www.w3.org/2000/svg">
<g clip-path="url(#clip0_693_591)">
<path d="M12.8005 2.19528C12.1046 1.49793 11.2779 0.944917 10.3677 0.568017C9.45753 0.191117 8.48185 -0.00224804 7.49672 -0.000970271C3.35422 -0.000970271 -0.00390625 3.35715 -0.00390625 7.49965C-0.00390625 9.5709 0.836094 11.4465 2.19359 12.804C2.88943 13.5014 3.71618 14.0544 4.62636 14.4313C5.53654 14.8082 6.51221 15.0016 7.49734 15.0003C11.6398 15.0003 14.998 11.6422 14.998 7.49965C14.998 5.4284 14.158 3.55278 12.8005 2.19528ZM11.8367 11.8372C11.2675 12.4079 10.5911 12.8604 9.8464 13.1689C9.1017 13.4774 8.3034 13.6357 7.49734 13.6347C4.10797 13.6347 1.36047 10.8872 1.36047 7.49778C1.35946 6.69173 1.51774 5.89342 1.82621 5.14873C2.13469 4.40404 2.58727 3.72764 3.15797 3.1584C3.72707 2.5877 4.40335 2.1351 5.14794 1.82662C5.89254 1.51815 6.69076 1.35987 7.49672 1.3609C10.8855 1.3609 13.633 4.10841 13.633 7.49715C13.634 8.30312 13.4758 9.10135 13.1673 9.84595C12.8588 10.5905 12.4062 11.2668 11.8355 11.8359L11.8367 11.8372Z" fill="#111111"/>
<path d="M8.46048 7.50006L10.8699 5.09068C10.9887 4.96114 11.0529 4.79069 11.0491 4.61493C11.0453 4.43917 10.9738 4.27167 10.8494 4.1474C10.725 4.02312 10.5575 3.95168 10.3817 3.94799C10.206 3.94429 10.0356 4.00862 9.9061 4.12756L7.49735 6.53631L5.08798 4.12693C4.95843 4.00808 4.78799 3.94386 4.61222 3.94767C4.43646 3.95148 4.26896 4.02303 4.14469 4.14738C4.02042 4.27174 3.94898 4.43928 3.94528 4.61505C3.94158 4.79081 4.00592 4.96121 4.12485 5.09068L6.5336 7.49943L4.12423 9.90881C4.05644 9.971 4.00193 10.0463 3.964 10.1301C3.92606 10.2139 3.90547 10.3045 3.90348 10.3965C3.90149 10.4885 3.91812 10.5799 3.95239 10.6653C3.98666 10.7506 4.03785 10.8282 4.10288 10.8933C4.16791 10.9583 4.24544 11.0096 4.33079 11.0439C4.41614 11.0782 4.50756 11.0949 4.59953 11.093C4.69151 11.091 4.78214 11.0705 4.86598 11.0326C4.94981 10.9948 5.02511 10.9403 5.08735 10.8726L7.49735 8.46256L9.90673 10.8719C9.96892 10.9397 10.0442 10.9942 10.128 11.0322C10.2118 11.0701 10.3024 11.0907 10.3944 11.0927C10.4864 11.0947 10.5778 11.078 10.6632 11.0438C10.7486 11.0095 10.8261 10.9583 10.8912 10.8933C10.9563 10.8282 11.0075 10.7507 11.0418 10.6654C11.0761 10.58 11.0928 10.4886 11.0909 10.3966C11.089 10.3046 11.0684 10.214 11.0306 10.1302C10.9927 10.0463 10.9382 9.97104 10.8705 9.90881L8.46048 7.50006Z" fill="#111111"/>
</g>
<defs>
<clipPath id="clip0_693_591">
<rect width="15" height="15" fill="white"/>
</clipPath>
</defs>
</svg>
