<svg width="16" height="15" viewBox="0 0 16 15" fill="none" xmlns="http://www.w3.org/2000/svg">
<path d="M15.2894 13.7354L12.5085 10.975C13.588 9.62807 14.1107 7.91846 13.9693 6.19767C13.8278 4.47689 13.033 2.87574 11.7481 1.72344C10.4633 0.571149 8.7861 -0.0446995 7.06147 0.00252864C5.33683 0.0497567 3.69582 0.756472 2.47586 1.97736C1.2559 3.19824 0.549719 4.8405 0.502527 6.56645C0.455334 8.2924 1.07072 9.97085 2.22213 11.2567C3.37355 12.5425 4.97349 13.338 6.69297 13.4795C8.41244 13.6211 10.1208 13.0979 11.4667 12.0177L14.225 14.7781C14.2947 14.8484 14.3776 14.9042 14.4689 14.9423C14.5603 14.9804 14.6582 15 14.7572 15C14.8561 15 14.9541 14.9804 15.0455 14.9423C15.1368 14.9042 15.2197 14.8484 15.2894 14.7781C15.4245 14.6382 15.5 14.4513 15.5 14.2568C15.5 14.0622 15.4245 13.8753 15.2894 13.7354ZM7.26166 12.0177C6.22392 12.0177 5.20949 11.7097 4.34664 11.1327C3.4838 10.5558 2.81129 9.73568 2.41417 8.77621C2.01705 7.81674 1.91314 6.76097 2.11559 5.7424C2.31804 4.72383 2.81776 3.78822 3.55155 3.05387C4.28534 2.31952 5.22024 1.81943 6.23804 1.61682C7.25583 1.41421 8.31081 1.5182 9.26955 1.91562C10.2283 2.31305 11.0477 2.98607 11.6243 3.84957C12.2008 4.71307 12.5085 5.72827 12.5085 6.76679C12.5085 8.15941 11.9557 9.49499 10.9718 10.4797C9.98778 11.4644 8.65321 12.0177 7.26166 12.0177Z" fill="#BA001A"/>
</svg>
