<svg width="19" height="18" viewBox="0 0 19 18" fill="none" xmlns="http://www.w3.org/2000/svg">
<path d="M9.5332 0C4.56311 0 0.533203 4.02991 0.533203 9C0.533203 13.9701 4.56311 18 9.5332 18C14.5033 18 18.5332 13.9701 18.5332 9C18.5332 4.02991 14.5033 0 9.5332 0ZM9.5332 16.4732C5.40686 16.4732 2.05999 13.1263 2.05999 9C2.05999 4.87366 5.40686 1.52679 9.5332 1.52679C13.6595 1.52679 17.0064 4.87366 17.0064 9C17.0064 13.1263 13.6595 16.4732 9.5332 16.4732Z" fill="black"/>
<path d="M13.454 11.9626L10.0592 9.96077V5.15533C10.0592 5.0699 9.9735 5 9.86875 5H8.72366C8.61891 5 8.5332 5.0699 8.5332 5.15533V10.5025C8.5332 10.553 8.56177 10.5996 8.61176 10.6287L12.5494 12.9702C12.6351 13.0207 12.7541 13.0052 12.816 12.9372L13.4969 12.18C13.5588 12.1082 13.5397 12.0111 13.454 11.9626Z" fill="black"/>
</svg>
