<svg width="18" height="17" viewBox="0 0 18 17" fill="none" xmlns="http://www.w3.org/2000/svg">
<path d="M9.56479 5.24902C9.56479 4.93836 9.31295 4.68652 9.00229 4.68652C8.69163 4.68652 8.43979 4.93836 8.43979 5.24902V9.74902C8.43979 10.0597 8.69163 10.3115 9.00229 10.3115C9.31295 10.3115 9.56479 10.0597 9.56479 9.74902V5.24902Z" fill="black"/>
<path fill-rule="evenodd" clip-rule="evenodd" d="M10.7563 1.30936C9.6398 0.812245 8.36477 0.812245 7.24824 1.30936C6.55012 1.62018 5.98637 2.21584 5.4042 3.03984C4.82387 3.86124 4.17395 4.98693 3.33434 6.4412L3.30365 6.49434C2.46403 7.94861 1.81411 9.0743 1.39292 9.98758C0.9704 10.9038 0.736418 11.6898 0.816297 12.4498C0.944052 13.6653 1.58157 14.7695 2.57035 15.4879C3.18859 15.9371 3.98632 16.1275 4.99101 16.2196C5.99252 16.3115 7.29234 16.3115 8.97156 16.3115H9.03298C10.7122 16.3115 12.0121 16.3115 13.0136 16.2196C14.0183 16.1275 14.816 15.9371 15.4342 15.4879C16.423 14.7695 17.0605 13.6653 17.1883 12.4498C17.2682 11.6898 17.0342 10.9038 16.6117 9.98758C16.1905 9.07429 15.5405 7.94859 14.7009 6.4943L14.6702 6.44114C13.8306 4.9869 13.1807 3.86123 12.6004 3.03984C12.0182 2.21584 11.4545 1.62018 10.7563 1.30936ZM7.70582 2.3371C8.53108 1.96967 9.47349 1.96967 10.2988 2.3371C10.7138 2.52186 11.1329 2.91237 11.6816 3.689C12.2286 4.46323 12.8532 5.54393 13.7113 7.03027C14.5694 8.51661 15.1931 9.59788 15.5901 10.4587C15.9883 11.3222 16.1169 11.8804 16.0694 12.3322C15.975 13.2306 15.5038 14.0468 14.773 14.5778C14.4055 14.8448 13.8577 15.0125 12.9108 15.0994C11.9668 15.186 10.7186 15.1865 9.00229 15.1865C7.28601 15.1865 6.0378 15.186 5.09378 15.0994C4.14685 15.0125 3.59911 14.8448 3.23161 14.5778C2.50077 14.0468 2.02956 13.2306 1.93513 12.3322C1.88765 11.8804 2.01628 11.3222 2.41452 10.4587C2.81152 9.59788 3.43514 8.51661 4.29327 7.03027C5.15141 5.54393 5.77601 4.46323 6.32302 3.689C6.87172 2.91237 7.29082 2.52186 7.70582 2.3371Z" fill="black"/>
<path d="M9.75232 11.999C9.75232 12.4132 9.41653 12.749 9.00232 12.749C8.5881 12.749 8.25232 12.4132 8.25232 11.999C8.25232 11.5848 8.5881 11.249 9.00232 11.249C9.41653 11.249 9.75232 11.5848 9.75232 11.999Z" fill="black"/>
</svg>
