<svg width="19" height="15" viewBox="0 0 19 15" fill="none" xmlns="http://www.w3.org/2000/svg">
<path d="M8.02339 3.54656L1.52344 3.57031M17.5233 3.51185L13.0234 3.52829" stroke="#BA001A" stroke-width="1.1" stroke-linecap="round" stroke-linejoin="round"/>
<path d="M13.024 3.52862C13.019 2.14792 11.8956 1.03273 10.5149 1.03777C9.13421 1.04282 8.01902 2.16619 8.02407 3.54689C8.02911 4.92759 9.15248 6.04279 10.5332 6.03774C11.9139 6.0327 13.0291 4.90933 13.024 3.52862Z" stroke="#BA001A" stroke-width="1.1" stroke-linecap="round" stroke-linejoin="round"/>
<path d="M4.05272 11.5612L1.55273 11.5703M17.5526 11.5119L9.05268 11.5429" stroke="#BA001A" stroke-width="1.1" stroke-linecap="round" stroke-linejoin="round"/>
<path d="M9.05333 11.5442C9.04829 10.1635 7.92492 9.04835 6.54421 9.0534C5.16351 9.05844 4.04832 10.1818 4.05337 11.5625C4.05841 12.9432 5.18178 14.0584 6.56248 14.0534C7.94319 14.0483 9.05838 12.925 9.05333 11.5442Z" stroke="#BA001A" stroke-width="1.1" stroke-linecap="round" stroke-linejoin="round"/>
</svg>
