<svg width="13" height="9" viewBox="0 0 13 9" fill="none" xmlns="http://www.w3.org/2000/svg">
<path d="M0 0.5625C0 0.25184 0.32335 0 0.722222 0H12.2778C12.6767 0 13 0.25184 13 0.5625C13 0.87316 12.6767 1.125 12.2778 1.125H0.722222C0.32335 1.125 0 0.87316 0 0.5625Z" fill="white"/>
<path d="M0 4.5C0 4.18934 0.32335 3.9375 0.722222 3.9375H6.5H12.2778C12.6767 3.9375 13 4.18934 13 4.5C13 4.81066 12.6767 5.0625 12.2778 5.0625H0.722222C0.32335 5.0625 0 4.81066 0 4.5Z" fill="white"/>
<path d="M0.722222 7.875C0.32335 7.875 0 8.12684 0 8.4375C0 8.74816 0.32335 9 0.722222 9H12.2778C12.6767 9 13 8.74816 13 8.4375C13 8.12684 12.6767 7.875 12.2778 7.875H0.722222Z" fill="white"/>
</svg>
