<svg width="20" height="22" viewBox="0 0 20 22" fill="none" xmlns="http://www.w3.org/2000/svg">
<path d="M19 6.26629V15.5603C19.0001 15.6674 18.9714 15.7726 18.9171 15.8649C18.8627 15.9572 18.7847 16.0333 18.691 16.0853L10.291 20.7513C10.202 20.8007 10.1018 20.8266 10 20.8266C9.89818 20.8266 9.79804 20.8007 9.709 20.7513L1.309 16.0853C1.21532 16.0333 1.13725 15.9572 1.08292 15.8649C1.02858 15.7726 0.999948 15.6674 1 15.5603V6.26629C1.00013 6.15934 1.02884 6.05436 1.08317 5.96223C1.1375 5.8701 1.21547 5.79416 1.309 5.74229L9.709 1.07529C9.79804 1.02591 9.89818 1 10 1C10.1018 1 10.202 1.02591 10.291 1.07529L18.691 5.74229C18.7845 5.79416 18.8625 5.8701 18.9168 5.96223C18.9712 6.05436 18.9999 6.15934 19 6.26629V6.26629Z" stroke="black" stroke-width="1.3" stroke-linecap="round" stroke-linejoin="round"/>
<path d="M1.52832 6.20741L9.70832 10.7514C9.79748 10.801 9.89781 10.827 9.99982 10.827C10.1018 10.827 10.2022 10.801 10.2913 10.7514L18.5003 6.19141M10.0003 19.9134V10.9134" stroke="black" stroke-width="1.3" stroke-linecap="round" stroke-linejoin="round"/>
</svg>
