<svg width="22" height="23" viewBox="0 0 22 23" fill="none" xmlns="http://www.w3.org/2000/svg">
<path d="M16.2625 21.1035H5.73915C3.45665 21.1035 1.60498 19.2518 1.60498 16.9693V10.8002C1.60498 8.51769 3.45665 6.66602 5.73915 6.66602H16.2625C18.545 6.66602 20.3966 8.51769 20.3966 10.8002V12.1202C20.3966 12.496 20.085 12.8077 19.7091 12.8077H17.8575C17.5366 12.8077 17.2433 12.9269 17.0325 13.1469L17.0233 13.156C16.7666 13.4035 16.6475 13.7427 16.675 14.091C16.73 14.696 17.3075 15.1818 17.9675 15.1818H19.7091C20.085 15.1818 20.3966 15.4935 20.3966 15.8693V16.9602C20.3966 19.2518 18.545 21.1035 16.2625 21.1035ZM5.73915 8.04102C4.21748 8.04102 2.97998 9.27852 2.97998 10.8002V16.9693C2.97998 18.491 4.21748 19.7285 5.73915 19.7285H16.2625C17.7841 19.7285 19.0216 18.491 19.0216 16.9693V16.566H17.9675C16.5833 16.566 15.41 15.5393 15.3 14.2193C15.2266 13.4677 15.5016 12.7252 16.0516 12.1844C16.5283 11.6985 17.17 11.4327 17.8575 11.4327H19.0216V10.8002C19.0216 9.27852 17.7841 8.04102 16.2625 8.04102H5.73915Z" fill="black"/>
<path d="M2.29248 12.314C1.91665 12.314 1.60498 12.0023 1.60498 11.6265V7.43737C1.60498 6.07154 2.46665 4.83399 3.74081 4.34816L11.0191 1.59816C11.7708 1.31399 12.605 1.41487 13.2558 1.8732C13.9158 2.33153 14.3008 3.07403 14.3008 3.87153V7.35485C14.3008 7.73068 13.9891 8.04235 13.6133 8.04235C13.2375 8.04235 12.9258 7.73068 12.9258 7.35485V3.87153C12.9258 3.52319 12.7608 3.20235 12.4675 3.00068C12.1741 2.79902 11.8258 2.75318 11.4958 2.88151L4.21748 5.63151C3.47498 5.91568 2.97081 6.63987 2.97081 7.43737V11.6265C2.97998 12.0115 2.66831 12.314 2.29248 12.314Z" fill="black"/>
<path d="M17.9675 16.5669C16.5833 16.5669 15.41 15.5402 15.3 14.2202C15.2267 13.4594 15.5017 12.7169 16.0517 12.1761C16.5192 11.6994 17.1608 11.4336 17.8483 11.4336H19.755C20.6625 11.4611 21.3592 12.1761 21.3592 13.0561V14.9444C21.3592 15.8244 20.6625 16.5394 19.7825 16.5669H17.9675ZM19.7367 12.8086H17.8575C17.5367 12.8086 17.2433 12.9278 17.0325 13.1478C16.7667 13.4044 16.6383 13.7527 16.675 14.1011C16.73 14.7061 17.3075 15.1919 17.9675 15.1919H19.7642C19.8833 15.1919 19.9933 15.0819 19.9933 14.9444V13.0561C19.9933 12.9186 19.8833 12.8178 19.7367 12.8086Z" fill="black"/>
<path d="M12.8341 11.9375H6.41748C6.04165 11.9375 5.72998 11.6258 5.72998 11.25C5.72998 10.8742 6.04165 10.5625 6.41748 10.5625H12.8341C13.21 10.5625 13.5216 10.8742 13.5216 11.25C13.5216 11.6258 13.21 11.9375 12.8341 11.9375Z" fill="black"/>
</svg>
