<svg width="24" height="19" viewBox="0 0 24 19" fill="none" xmlns="http://www.w3.org/2000/svg">
<path d="M6.78942 17.8613C8.0684 17.8613 9.10521 16.7919 9.10521 15.4728C9.10521 14.1536 8.0684 13.0842 6.78942 13.0842C5.51045 13.0842 4.47363 14.1536 4.47363 15.4728C4.47363 16.7919 5.51045 17.8613 6.78942 17.8613Z" stroke="black" stroke-width="1.5" stroke-linecap="round" stroke-linejoin="round"/>
<path d="M18.3685 17.8613C19.6475 17.8613 20.6843 16.7919 20.6843 15.4728C20.6843 14.1536 19.6475 13.0842 18.3685 13.0842C17.0895 13.0842 16.0527 14.1536 16.0527 15.4728C16.0527 16.7919 17.0895 17.8613 18.3685 17.8613Z" stroke="black" stroke-width="1.5" stroke-linecap="round" stroke-linejoin="round"/>
<path d="M4.47368 15.4718H2.15789V10.6947M1 1.14062H13.7368V15.4718M9.10526 15.4718H16.0526M20.6842 15.4718H23V8.30619M23 8.30619H13.7368M23 8.30619L20.6832 4.32354C19.9669 3.09233 18.65 2.33489 17.2256 2.33489H13.7368M2.15789 5.91767H6.78947" stroke="black" stroke-width="1.3" stroke-linecap="round" stroke-linejoin="round"/>
</svg>
