<svg width="14" height="19" viewBox="0 0 14 19" fill="none" xmlns="http://www.w3.org/2000/svg">
<path d="M11.9497 2.06791C10.7258 0.833479 9.09205 0.100176 7.36377 0.00953107C5.63549 -0.0811143 3.93518 0.477324 2.59102 1.57707C1.24685 2.67681 0.354117 4.23989 0.0851078 5.96464C-0.183902 7.68939 0.189886 9.45354 1.13433 10.9166L6.0008 18.4538C6.1091 18.6215 6.25717 18.7593 6.4316 18.8547C6.60603 18.95 6.8013 19 6.9997 19C7.1981 19 7.39337 18.95 7.5678 18.8547C7.74223 18.7593 7.8903 18.6215 7.9986 18.4538L12.8652 10.9166C13.7416 9.5594 14.1288 7.93954 13.9622 6.32852C13.7955 4.71751 13.0849 3.21326 11.9497 2.06791ZM11.7861 10.2073L6.99972 17.6201L2.21334 10.2073C0.748254 7.93825 1.06248 4.90166 2.9605 2.98672C3.49093 2.45157 4.12065 2.02706 4.8137 1.73744C5.50675 1.44781 6.24957 1.29874 6.99972 1.29874C7.74988 1.29874 8.49269 1.44781 9.18574 1.73744C9.87879 2.02706 10.5085 2.45157 11.0389 2.98672C12.937 4.90166 13.2511 7.93825 11.7861 10.2073Z" fill="#171717"/>
<path d="M7 4C6.40666 4 5.82664 4.17595 5.33329 4.50559C4.83994 4.83524 4.45543 5.30377 4.22836 5.85195C4.0013 6.40013 3.94189 7.00333 4.05765 7.58527C4.1734 8.16721 4.45912 8.70176 4.87868 9.12132C5.29824 9.54088 5.83279 9.8266 6.41473 9.94235C6.99667 10.0581 7.59987 9.9987 8.14805 9.77164C8.69623 9.54457 9.16476 9.16006 9.49441 8.66671C9.82405 8.17336 10 7.59334 10 7C9.99909 6.20463 9.68273 5.44209 9.12032 4.87968C8.55791 4.31727 7.79537 4.00091 7 4ZM7 8.5C6.70333 8.5 6.41332 8.41202 6.16665 8.2472C5.91997 8.08238 5.72771 7.84811 5.61418 7.57402C5.50065 7.29994 5.47094 6.99833 5.52882 6.70736C5.5867 6.41639 5.72956 6.14912 5.93934 5.93934C6.14912 5.72956 6.41639 5.5867 6.70736 5.52882C6.99834 5.47094 7.29994 5.50065 7.57403 5.61418C7.84811 5.72771 8.08238 5.91997 8.24721 6.16664C8.41203 6.41332 8.5 6.70333 8.5 7C8.49954 7.39768 8.34136 7.77895 8.06015 8.06015C7.77895 8.34136 7.39768 8.49954 7 8.5Z" fill="#171717"/>
</svg>
