<svg width="33" height="33" viewBox="0 0 33 33" fill="none" xmlns="http://www.w3.org/2000/svg">
<circle cx="16.5" cy="16.5" r="16.5" fill="#BA001A"/>
<path d="M21.4497 9.56791C20.2258 8.33348 18.592 7.60018 16.8638 7.50953C15.1355 7.41889 13.4352 7.97732 12.091 9.07707C10.7469 10.1768 9.85412 11.7399 9.58511 13.4646C9.3161 15.1894 9.68989 16.9535 10.6343 18.4166L15.5008 25.9538C15.6091 26.1215 15.7572 26.2593 15.9316 26.3547C16.106 26.45 16.3013 26.5 16.4997 26.5C16.6981 26.5 16.8934 26.45 17.0678 26.3547C17.2422 26.2593 17.3903 26.1215 17.4986 25.9538L22.3652 18.4166C23.2416 17.0594 23.6288 15.4395 23.4622 13.8285C23.2955 12.2175 22.5849 10.7133 21.4497 9.56791ZM21.2861 17.7073L16.4997 25.1201L11.7133 17.7073C10.2483 15.4382 10.5625 12.4017 12.4605 10.4867C12.9909 9.95157 13.6207 9.52706 14.3137 9.23744C15.0068 8.94781 15.7496 8.79874 16.4997 8.79874C17.2499 8.79874 17.9927 8.94781 18.6857 9.23744C19.3788 9.52706 20.0085 9.95157 20.5389 10.4867C22.437 12.4017 22.7511 15.4382 21.2861 17.7073Z" fill="white"/>
<path d="M21.4497 9.56791C20.2258 8.33348 18.592 7.60018 16.8638 7.50953C15.1355 7.41889 13.4352 7.97732 12.091 9.07707C10.7469 10.1768 9.85412 11.7399 9.58511 13.4646C9.3161 15.1894 9.68989 16.9535 10.6343 18.4166L15.5008 25.9538C15.6091 26.1215 15.7572 26.2593 15.9316 26.3547C16.106 26.45 16.3013 26.5 16.4997 26.5C16.6981 26.5 16.8934 26.45 17.0678 26.3547C17.2422 26.2593 17.3903 26.1215 17.4986 25.9538L22.3652 18.4166C23.2416 17.0594 23.6288 15.4395 23.4622 13.8285C23.2955 12.2175 22.5849 10.7133 21.4497 9.56791ZM21.2861 17.7073L16.4997 25.1201L11.7133 17.7073C10.2483 15.4382 10.5625 12.4017 12.4605 10.4867C12.9909 9.95157 13.6207 9.52706 14.3137 9.23744C15.0068 8.94781 15.7496 8.79874 16.4997 8.79874C17.2499 8.79874 17.9927 8.94781 18.6857 9.23744C19.3788 9.52706 20.0085 9.95157 20.5389 10.4867C22.437 12.4017 22.7511 15.4382 21.2861 17.7073Z" fill="white"/>
<path d="M16.5 11.5C15.9067 11.5 15.3266 11.6759 14.8333 12.0056C14.3399 12.3352 13.9554 12.8038 13.7284 13.3519C13.5013 13.9001 13.4419 14.5033 13.5576 15.0853C13.6734 15.6672 13.9591 16.2018 14.3787 16.6213C14.7982 17.0409 15.3328 17.3266 15.9147 17.4424C16.4967 17.5581 17.0999 17.4987 17.6481 17.2716C18.1962 17.0446 18.6648 16.6601 18.9944 16.1667C19.3241 15.6734 19.5 15.0933 19.5 14.5C19.4991 13.7046 19.1827 12.9421 18.6203 12.3797C18.0579 11.8173 17.2954 11.5009 16.5 11.5ZM16.5 16C16.2033 16 15.9133 15.912 15.6666 15.7472C15.42 15.5824 15.2277 15.3481 15.1142 15.074C15.0006 14.7999 14.9709 14.4983 15.0288 14.2074C15.0867 13.9164 15.2296 13.6491 15.4393 13.4393C15.6491 13.2296 15.9164 13.0867 16.2074 13.0288C16.4983 12.9709 16.7999 13.0006 17.074 13.1142C17.3481 13.2277 17.5824 13.42 17.7472 13.6666C17.912 13.9133 18 14.2033 18 14.5C17.9995 14.8977 17.8414 15.2789 17.5602 15.5602C17.2789 15.8414 16.8977 15.9995 16.5 16Z" fill="white"/>
<path d="M16.5 11.5C15.9067 11.5 15.3266 11.6759 14.8333 12.0056C14.3399 12.3352 13.9554 12.8038 13.7284 13.3519C13.5013 13.9001 13.4419 14.5033 13.5576 15.0853C13.6734 15.6672 13.9591 16.2018 14.3787 16.6213C14.7982 17.0409 15.3328 17.3266 15.9147 17.4424C16.4967 17.5581 17.0999 17.4987 17.6481 17.2716C18.1962 17.0446 18.6648 16.6601 18.9944 16.1667C19.3241 15.6734 19.5 15.0933 19.5 14.5C19.4991 13.7046 19.1827 12.9421 18.6203 12.3797C18.0579 11.8173 17.2954 11.5009 16.5 11.5ZM16.5 16C16.2033 16 15.9133 15.912 15.6666 15.7472C15.42 15.5824 15.2277 15.3481 15.1142 15.074C15.0006 14.7999 14.9709 14.4983 15.0288 14.2074C15.0867 13.9164 15.2296 13.6491 15.4393 13.4393C15.6491 13.2296 15.9164 13.0867 16.2074 13.0288C16.4983 12.9709 16.7999 13.0006 17.074 13.1142C17.3481 13.2277 17.5824 13.42 17.7472 13.6666C17.912 13.9133 18 14.2033 18 14.5C17.9995 14.8977 17.8414 15.2789 17.5602 15.5602C17.2789 15.8414 16.8977 15.9995 16.5 16Z" fill="white"/>
</svg>
