<svg width="23" height="17" viewBox="0 0 23 17" fill="none" xmlns="http://www.w3.org/2000/svg">
<path d="M23 8.42675C23 8.36919 23 8.30379 22.9974 8.22792C22.9949 8.016 22.9897 7.77793 22.9846 7.52416C22.9641 6.79424 22.9281 6.06694 22.8717 5.3815C22.7946 4.43706 22.6817 3.64958 22.5277 3.05833C22.3651 2.4413 22.0466 1.87855 21.6038 1.42634C21.1609 0.974124 20.6094 0.648281 20.0044 0.481379C19.2779 0.282548 17.8558 0.159587 15.8536 0.083718C14.9012 0.0470913 13.8821 0.0235455 12.8631 0.0104646C12.5062 0.00523222 12.1751 0.00261619 11.8773 0H11.1227C10.8249 0.00261619 10.4937 0.00523222 10.1369 0.0104646C9.11786 0.0235455 8.09877 0.0470913 7.14643 0.083718C5.1442 0.162204 3.71953 0.285164 2.99565 0.481379C2.39036 0.647872 1.83864 0.973576 1.39577 1.42585C0.952906 1.87813 0.634451 2.44109 0.472321 3.05833C0.315737 3.64958 0.205357 4.43706 0.128348 5.3815C0.071875 6.06694 0.0359375 6.79424 0.0154017 7.52416C0.00770085 7.77793 0.00513389 8.016 0.00256693 8.22792C0.00256693 8.30379 0 8.36919 0 8.42675V8.57325C0 8.63081 -3.91994e-08 8.69621 0.00256693 8.77208C0.00513389 8.98399 0.0102678 9.22207 0.0154017 9.47584C0.0359375 10.2058 0.071875 10.9331 0.128348 11.6185C0.205357 12.5629 0.318304 13.3504 0.472321 13.9417C0.800893 15.1948 1.76607 16.1837 2.99565 16.5186C3.71953 16.7175 5.1442 16.8404 7.14643 16.9163C8.09877 16.9529 9.11786 16.9765 10.1369 16.9895C10.4937 16.9948 10.8249 16.9974 11.1227 17H11.8773C12.1751 16.9974 12.5062 16.9948 12.8631 16.9895C13.8821 16.9765 14.9012 16.9529 15.8536 16.9163C17.8558 16.8378 19.2805 16.7148 20.0044 16.5186C21.2339 16.1837 22.1991 15.1974 22.5277 13.9417C22.6843 13.3504 22.7946 12.5629 22.8717 11.6185C22.9281 10.9331 22.9641 10.2058 22.9846 9.47584C22.9923 9.22207 22.9949 8.98399 22.9974 8.77208C22.9974 8.69621 23 8.63081 23 8.57325V8.42675ZM21.1518 8.56279C21.1518 8.61773 21.1518 8.6779 21.1492 8.74854C21.1467 8.9526 21.1415 9.17759 21.1364 9.4209C21.1184 10.1168 21.0825 10.8127 21.0286 11.4589C20.9593 12.3013 20.8617 12.992 20.7411 13.4551C20.5819 14.0594 20.1147 14.5382 19.5243 14.6978C18.9853 14.8443 17.6273 14.962 15.7817 15.0326C14.8473 15.0693 13.8411 15.0928 12.8374 15.1059C12.4857 15.1111 12.1597 15.1137 11.8671 15.1137H11.1329L10.1626 15.1059C9.15893 15.0928 8.15525 15.0693 7.2183 15.0326C5.37266 14.9594 4.01217 14.8443 3.47567 14.6978C2.88527 14.5355 2.41808 14.0594 2.25893 13.4551C2.13828 12.992 2.04074 12.3013 1.97143 11.4589C1.91752 10.8127 1.88415 10.1168 1.86362 9.4209C1.85592 9.17759 1.85335 8.94998 1.85078 8.74854C1.85078 8.6779 1.84821 8.61511 1.84821 8.56279V8.43721C1.84821 8.38227 1.84821 8.3221 1.85078 8.25146C1.85335 8.0474 1.85848 7.82241 1.86362 7.5791C1.88159 6.88319 1.91752 6.18729 1.97143 5.54109C2.04074 4.69868 2.13828 4.008 2.25893 3.54494C2.41808 2.9406 2.88527 2.46183 3.47567 2.30225C4.01473 2.15574 5.37266 2.03801 7.2183 1.96737C8.15268 1.93075 9.15893 1.9072 10.1626 1.89412C10.5143 1.88889 10.8403 1.88627 11.1329 1.88627H11.8671L12.8374 1.89412C13.8411 1.9072 14.8448 1.93075 15.7817 1.96737C17.6273 2.04063 18.9878 2.15574 19.5243 2.30225C20.1147 2.46445 20.5819 2.9406 20.7411 3.54494C20.8617 4.008 20.9593 4.69868 21.0286 5.54109C21.0825 6.18729 21.1158 6.88319 21.1364 7.5791C21.1441 7.82241 21.1467 8.05001 21.1492 8.25146C21.1492 8.3221 21.1518 8.38489 21.1518 8.43721V8.56279ZM9.2154 12.0057L15.1708 8.47384L9.2154 4.99431V12.0057Z" fill="#111111"/>
</svg>
